<?xml version="1.0" encoding="utf-8" ?><svg xmlns="http://www.w3.org/2000/svg" xmlns:xlink="http://www.w3.org/1999/xlink" width="1496" height="1482" viewBox="0 0 1496 1482"><clipPath id="cl_3"><rect x="3.0517578e-05" y="0.00018310547" width="1495.819" height="1481.7266"/></clipPath><g clip-path="url(#cl_3)"><path fill="#030101" transform="matrix(1.00661 0 0 1.00661 -280.844 -289.903)" d="M578.927 283.503L1212.1 283.343L1402.22 283.308C1445.14 283.343 1502.01 280.847 1542.96 288.795C1594.64 298.952 1642.21 324.021 1679.81 360.907C1741.47 421.244 1765.54 488.921 1766.21 573.889L1766.07 1226.2L1766.22 1416.17C1766.23 1452.99 1768.21 1505.32 1761.91 1540.89C1752.26 1595.4 1721.99 1647 1683.15 1686.24C1668.65 1700.65 1652.6 1713.41 1635.29 1724.3C1581.11 1758.9 1534.43 1766.74 1472.25 1767.02L820.327 1767.09L641.451 1767.31C601.094 1767.31 549.738 1769.39 510.799 1762.04C458.241 1752.46 409.73 1727.44 371.456 1690.17C321.642 1641.24 284.655 1574.01 284.079 1503.01L284.031 827.908L284.012 641.685C283.981 600.388 281.301 548.708 289.118 509.108C300.192 455.772 326.391 406.754 364.583 367.913C411.683 320.342 471.03 290.199 537.979 284.429C550.426 283.356 566.174 283.606 578.927 283.503ZM744.322 1429.11C836.358 1511.65 1002.58 1477.5 1013.48 1342.68C1016.23 1308.61 1015.31 1275.42 1015.26 1241.29L1015.1 1057.86L1015.36 822.478L1015.39 736.002C1015.36 684.916 1018.35 639.23 974.436 601.701C945.236 576.745 918.329 574.616 881.418 576.468C837.357 587.572 814.893 603.081 790.081 642.986C783.069 654.264 775.385 677.099 770.783 686.448C768.359 691.374 731.794 703.432 726.516 709.236C663.383 747.474 630.388 822.847 647.736 894.753C648.912 899.629 656.16 920.81 653.735 922.842C594.914 972.122 563.336 1047.51 581.515 1124.3C590.144 1160.76 615.151 1202.3 645.189 1227.77C680.936 1256.29 669.198 1240.17 671.773 1285.55C674.83 1339.42 703.097 1393.66 744.322 1429.11ZM1329.79 1408.29C1358.44 1376.42 1375.97 1336.11 1379.73 1293.42C1380.9 1279.25 1379.92 1264.01 1379.95 1249.74C1387.12 1240.39 1408.2 1227.82 1418.67 1217.43C1477.4 1159.1 1490.2 1065.69 1453.23 992.38C1442.98 972.072 1432.05 955.195 1415.35 939.596C1413.26 937.061 1396.77 923.075 1396.9 921.362C1398.3 906.384 1404.53 891.658 1406.94 876.371C1417.87 807.23 1372.89 729.638 1310.23 700.317C1270.74 681.84 1289.19 695.612 1269.53 656.414C1240 597.536 1196.91 571.101 1130.43 576.5C1123.13 578.76 1115.18 580.286 1108.58 582.73C1084.29 591.739 1063.35 609.782 1051.88 633.128C1047.3 642.456 1040.68 658.508 1040.34 668.77C1039.34 699.295 1039.68 730.885 1039.65 761.392L1039.67 942.611L1039.73 1206.34C1039.73 1252.29 1039.51 1298.64 1039.94 1344.6C1040.52 1355.17 1042.22 1367.31 1045.43 1377.29C1056.89 1412.87 1080.73 1441.09 1114.6 1457.46C1187.85 1492.85 1277.31 1467.51 1329.79 1408.29Z"/></g></svg>